# Hierarchical Translation and Rotation (.htr) file
# Generated by EVaRT
[Header]
FileType htr
DataType HTRS
FileVersion 1
NumSegments 23
NumFrames 5
DataFrameRate 120
EulerRotationOrder ZYX
CalibrationUnits mm
RotationUnits Degrees
GlobalAxisofGravity Y
BoneLengthAxis Y
ScaleFactor 1
[SegmentNames&Hierarchy]
#CHILD            PARENT
DaveRoot          GLOBAL
Spine1            DaveRoot
Spine2            Spine1
Spine3            Spine2
Spine4            Spine3
Neck              Spine4
Head              Neck
LClavicle         Spine4
LUpperArm         LClavicle
LLowerArm         LUpperArm
LHand             LLowerArm
RClavicle         Spine4
RUpperArm         RClavicle
RLowerArm         RUpperArm
RHand             RLowerArm
RUpperLeg         DaveRoot
RLowerLeg         RUpperLeg
RFoot             RLowerLeg
RToes             RFoot
LUpperLeg         DaveRoot
LLowerLeg         LUpperLeg
LFoot             LLowerLeg
LToes             LFoot
[BasePosition]
#SegmentName      Tx   Ty   Tz   Rx   Ry   Rz   BoneLength
DaveRoot          1078.678277	988.889323	-667.355416	21.100172	-35.850280	-13.563871	100.000000
Spine1            0.000000	100.000000	0.000000	-14.881963	2.292165	3.740750	100.000000
Spine2            0.000000	100.000000	0.000000	6.530342	0.668586	4.295175	100.000000
Spine3            0.000000	100.000000	0.000000	12.838786	0.191691	4.342582	100.000000
Spine4            0.000000	100.000000	0.000000	14.062130	1.171471	5.872723	100.000000
Neck              0.000000	100.000000	0.000000	7.737895	11.498691	-3.920750	80.000000
Head              0.000000	80.000000	0.000000	-47.820279	-9.378091	-2.499782	200.000000
LClavicle         0.000000	100.000000	0.000000	7.006000	0.163524	-123.648937	200.000000
LUpperArm         0.000000	200.000000	0.000000	39.957204	52.516966	-16.160711	300.000000
LLowerArm         0.000000	300.000000	0.000000	-1.806693	2.175812	1.895763	200.000000
LHand             0.000000	200.000000	0.000000	16.195035	-1.768569	8.793625	120.000000
RClavicle         0.000000	100.000000	0.000000	3.329328	-3.962094	109.315139	200.000000
RUpperArm         0.000000	200.000000	0.000000	31.467517	-27.516660	21.198784	300.000000
RLowerArm         0.000000	300.000000	0.000000	20.023297	-3.682026	-7.348670	200.000000
RHand             0.000000	200.000000	0.000000	6.266882	13.427731	10.826414	120.000000
RUpperLeg         -115.911102	-10.000000	31.058285	22.207319	27.607647	-154.283666	530.000000
RLowerLeg         0.000000	530.000000	0.000000	-15.604109	0.479387	-2.520024	460.000000
RFoot             0.000000	460.000000	0.000000	98.099007	-9.797309	28.788465	130.000000
RToes             0.000000	130.000000	0.000000	-15.148141	0.005479	-0.002881	100.000000
LUpperLeg         115.911102	-10.000000	31.058285	41.660003	-3.682702	-163.432677	530.000000
LLowerLeg         0.000000	530.000000	0.000000	-22.778950	-3.275937	3.046484	460.000000
LFoot             0.000000	460.000000	0.000000	77.647326	-23.190969	-3.622247	130.000000
LToes             0.000000	130.000000	0.000000	14.512714	-0.000000	-0.000086	100.000000
#Beginning of Data.
[DaveRoot]
#Fr	Tx	Ty	Tz	Rx	Ry	Rz	SF
1000	-2292.870801	-526.484425	220.920942	91.433068	25.252562	17.626433	1.000000	
1001	-2289.150988	-524.241075	215.080273	91.434574	25.234271	17.609937	1.000000	
1002	-2285.379138	-522.095632	209.282048	91.360191	25.221007	17.512363	1.000000	
1003	-2281.558809	-520.069572	203.551059	91.197028	25.208849	17.326757	1.000000	
1004	-2277.714122	-518.172465	197.908630	90.938645	25.197000	17.051469	1.000000	
[Spine1]
#Fr	Tx	Ty	Tz	Rx	Ry	Rz	SF
1000	0.000000	0.000000	0.000000	-0.814745	4.183935	-5.780905	1.000000	
1001	0.000000	0.000000	0.000000	-0.880586	4.097361	-5.806273	1.000000	
1002	0.000000	0.000000	0.000000	-0.933920	4.007831	-5.828556	1.000000	
1003	0.000000	0.000000	0.000000	-0.969890	3.920671	-5.847471	1.000000	
1004	0.000000	0.000000	0.000000	-0.986280	3.838490	-5.862272	1.000000	
[Spine2]
#Fr	Tx	Ty	Tz	Rx	Ry	Rz	SF
1000	0.000000	0.000000	0.000000	-0.814745	4.183935	-5.780905	1.000000	
1001	0.000000	0.000000	0.000000	-0.880586	4.097361	-5.806273	1.000000	
1002	0.000000	0.000000	0.000000	-0.933920	4.007831	-5.828556	1.000000	
1003	0.000000	0.000000	0.000000	-0.969890	3.920671	-5.847471	1.000000	
1004	0.000000	0.000000	0.000000	-0.986280	3.838490	-5.862272	1.000000	
[Spine3]
#Fr	Tx	Ty	Tz	Rx	Ry	Rz	SF
1000	0.000000	0.000000	0.000000	-0.814745	4.183935	-5.780905	1.000000	
1001	0.000000	0.000000	0.000000	-0.880586	4.097361	-5.806273	1.000000	
1002	0.000000	0.000000	0.000000	-0.933920	4.007831	-5.828556	1.000000	
1003	0.000000	0.000000	0.000000	-0.969890	3.920671	-5.847471	1.000000	
1004	0.000000	0.000000	0.000000	-0.986280	3.838490	-5.862272	1.000000	
[Spine4]
#Fr	Tx	Ty	Tz	Rx	Ry	Rz	SF
1000	0.000000	0.000000	0.000000	-0.814745	4.183935	-5.780905	1.000000	
1001	0.000000	0.000000	0.000000	-0.880586	4.097361	-5.806273	1.000000	
1002	0.000000	0.000000	0.000000	-0.933920	4.007831	-5.828556	1.000000	
1003	0.000000	0.000000	0.000000	-0.969890	3.920671	-5.847471	1.000000	
1004	0.000000	0.000000	0.000000	-0.986280	3.838490	-5.862272	1.000000	
[Neck]
#Fr	Tx	Ty	Tz	Rx	Ry	Rz	SF
1000	0.000000	0.000000	0.000000	-16.110089	-8.860216	-2.563997	1.000000	
1001	0.000000	0.000000	0.000000	-16.116478	-8.547661	-2.638216	1.000000	
1002	0.000000	0.000000	0.000000	-16.152956	-8.193073	-2.684851	1.000000	
1003	0.000000	0.000000	0.000000	-16.215593	-7.818491	-2.712457	1.000000	
1004	0.000000	0.000000	0.000000	-16.296820	-7.437600	-2.729655	1.000000	
[Head]
#Fr	Tx	Ty	Tz	Rx	Ry	Rz	SF
1000	0.000000	0.000000	0.000000	-16.110089	-8.860216	-2.563997	1.000000	
1001	0.000000	0.000000	0.000000	-16.116478	-8.547661	-2.638216	1.000000	
1002	0.000000	0.000000	0.000000	-16.152956	-8.193073	-2.684851	1.000000	
1003	0.000000	0.000000	0.000000	-16.215593	-7.818491	-2.712457	1.000000	
1004	0.000000	0.000000	0.000000	-16.296820	-7.437600	-2.729655	1.000000	
[LClavicle]
#Fr	Tx	Ty	Tz	Rx	Ry	Rz	SF
1000	0.000000	0.000000	0.000000	10.925532	-0.654125	22.712271	1.000000	
1001	0.000000	0.000000	0.000000	10.938355	-0.762722	23.267787	1.000000	
1002	0.000000	0.000000	0.000000	10.914474	-0.867711	23.818044	1.000000	
1003	0.000000	0.000000	0.000000	10.859411	-0.966806	24.354197	1.000000	
1004	0.000000	0.000000	0.000000	10.781869	-1.058015	24.865828	1.000000	
[LUpperArm]
#Fr	Tx	Ty	Tz	Rx	Ry	Rz	SF
1000	0.000000	0.000000	0.000000	71.466846	54.621336	126.927817	1.000000	
1001	0.000000	0.000000	0.000000	69.777129	54.056634	125.452990	1.000000	
1002	0.000000	0.000000	0.000000	68.138161	53.541950	124.047794	1.000000	
1003	0.000000	0.000000	0.000000	66.560234	53.089664	122.738415	1.000000	
1004	0.000000	0.000000	0.000000	65.039884	52.707194	121.520975	1.000000	
[LLowerArm]
#Fr	Tx	Ty	Tz	Rx	Ry	Rz	SF
1000	0.000000	0.000000	0.000000	-51.580091	0.000000	0.000000	1.000000	
1001	0.000000	0.000000	0.000000	-50.955227	0.000000	0.000000	1.000000	
1002	0.000000	0.000000	0.000000	-50.404865	0.000000	0.000000	1.000000	
1003	0.000000	0.000000	0.000000	-49.926704	0.000000	0.000000	1.000000	
1004	0.000000	0.000000	0.000000	-49.513411	0.000000	0.000000	1.000000	
[LHand]
#Fr	Tx	Ty	Tz	Rx	Ry	Rz	SF
1000	0.000000	0.000000	0.000000	-1.240450	-0.000000	0.000000	1.000000	
1001	0.000000	0.000000	0.000000	-1.376832	-0.000000	0.000000	1.000000	
1002	0.000000	0.000000	0.000000	-1.379543	-0.000000	0.000000	1.000000	
1003	0.000000	0.000000	0.000000	-1.280138	-0.000000	0.000000	1.000000	
1004	0.000000	0.000000	0.000000	-1.137228	-0.000000	0.000000	1.000000	
[RClavicle]
#Fr	Tx	Ty	Tz	Rx	Ry	Rz	SF
1000	0.000000	0.000000	0.000000	-1.269978	-0.232100	-11.871175	1.000000	
1001	0.000000	0.000000	0.000000	-1.551313	-0.286967	-11.993599	1.000000	
1002	0.000000	0.000000	0.000000	-1.884500	-0.350952	-12.061468	1.000000	
1003	0.000000	0.000000	0.000000	-2.232488	-0.416342	-12.074404	1.000000	
1004	0.000000	0.000000	0.000000	-2.543092	-0.472637	-12.037355	1.000000	
[RUpperArm]
#Fr	Tx	Ty	Tz	Rx	Ry	Rz	SF
1000	0.000000	0.000000	0.000000	-44.155274	54.589663	-125.258984	1.000000	
1001	0.000000	0.000000	0.000000	-40.971811	51.520413	-122.149735	1.000000	
1002	0.000000	0.000000	0.000000	-38.051712	48.425850	-119.292624	1.000000	
1003	0.000000	0.000000	0.000000	-35.461757	45.394915	-116.737209	1.000000	
1004	0.000000	0.000000	0.000000	-33.268031	42.560622	-114.521935	1.000000	
[RLowerArm]
#Fr	Tx	Ty	Tz	Rx	Ry	Rz	SF
1000	0.000000	0.000000	0.000000	20.057354	0.000000	0.000000	1.000000	
1001	0.000000	0.000000	0.000000	17.466010	0.000000	0.000000	1.000000	
1002	0.000000	0.000000	0.000000	14.972132	0.000000	0.000000	1.000000	
1003	0.000000	0.000000	0.000000	12.712727	0.000000	0.000000	1.000000	
1004	0.000000	0.000000	0.000000	10.848089	0.000000	0.000000	1.000000	
[RHand]
#Fr	Tx	Ty	Tz	Rx	Ry	Rz	SF
1000	0.000000	0.000000	0.000000	32.102329	-56.124929	-67.445480	1.000000	
1001	0.000000	0.000000	0.000000	29.549000	-54.064409	-65.915416	1.000000	
1002	0.000000	0.000000	0.000000	27.202154	-51.885216	-64.561139	1.000000	
1003	0.000000	0.000000	0.000000	25.085781	-49.662237	-63.422126	1.000000	
1004	0.000000	0.000000	0.000000	23.222325	-47.476319	-62.531021	1.000000	
[RUpperLeg]
#Fr	Tx	Ty	Tz	Rx	Ry	Rz	SF
1000	0.000000	0.000000	0.000000	65.050135	-14.340050	-21.068534	1.000000	
1001	0.000000	0.000000	0.000000	65.804275	-14.305951	-21.287000	1.000000	
1002	0.000000	0.000000	0.000000	66.514450	-14.334407	-21.501314	1.000000	
1003	0.000000	0.000000	0.000000	67.173038	-14.430121	-21.715566	1.000000	
1004	0.000000	0.000000	0.000000	67.775529	-14.597263	-21.932802	1.000000	
[RLowerLeg]
#Fr	Tx	Ty	Tz	Rx	Ry	Rz	SF
1000	0.000000	0.000000	0.000000	-78.434568	-0.000000	0.000000	1.000000	
1001	0.000000	0.000000	0.000000	-79.247715	-0.000000	0.000000	1.000000	
1002	0.000000	0.000000	0.000000	-80.036598	-0.000000	0.000000	1.000000	
1003	0.000000	0.000000	0.000000	-80.793265	-0.000000	0.000000	1.000000	
1004	0.000000	0.000000	0.000000	-81.511764	-0.000000	0.000000	1.000000	
[RFoot]
#Fr	Tx	Ty	Tz	Rx	Ry	Rz	SF
1000	0.000000	0.000000	0.000000	-2.682046	-29.104282	-30.711615	1.000000	
1001	0.000000	0.000000	0.000000	-1.905452	-28.126616	-30.842583	1.000000	
1002	0.000000	0.000000	0.000000	-1.142205	-27.301474	-30.930612	1.000000	
1003	0.000000	0.000000	0.000000	-0.449721	-26.802692	-30.994730	1.000000	
1004	0.000000	0.000000	0.000000	0.139617	-26.703913	-31.059561	1.000000	
[RToes]
#Fr	Tx	Ty	Tz	Rx	Ry	Rz	SF
1000	0.000000	0.000000	0.000000	32.480564	0.000000	0.000000	1.000000	
1001	0.000000	0.000000	0.000000	31.198926	-0.000000	-0.000000	1.000000	
1002	0.000000	0.000000	0.000000	29.994784	-0.000000	-0.000000	1.000000	
1003	0.000000	0.000000	0.000000	29.097309	-0.000000	-0.000000	1.000000	
1004	0.000000	0.000000	0.000000	28.640982	0.000000	0.000000	1.000000	
[LUpperLeg]
#Fr	Tx	Ty	Tz	Rx	Ry	Rz	SF
1000	0.000000	0.000000	0.000000	36.217828	-7.209454	-15.931555	1.000000	
1001	0.000000	0.000000	0.000000	36.889873	-7.120886	-16.008947	1.000000	
1002	0.000000	0.000000	0.000000	37.521295	-7.089859	-16.046426	1.000000	
1003	0.000000	0.000000	0.000000	38.095872	-7.117068	-16.042804	1.000000	
1004	0.000000	0.000000	0.000000	38.601914	-7.203565	-15.995499	1.000000	
[LLowerLeg]
#Fr	Tx	Ty	Tz	Rx	Ry	Rz	SF
1000	0.000000	0.000000	0.000000	-63.373838	0.000000	0.000000	1.000000	
1001	0.000000	0.000000	0.000000	-64.038837	0.000000	0.000000	1.000000	
1002	0.000000	0.000000	0.000000	-64.755439	0.000000	0.000000	1.000000	
1003	0.000000	0.000000	0.000000	-65.525524	0.000000	0.000000	1.000000	
1004	0.000000	0.000000	0.000000	-66.344318	0.000000	0.000000	1.000000	
[LFoot]
#Fr	Tx	Ty	Tz	Rx	Ry	Rz	SF
1000	0.000000	0.000000	0.000000	14.268848	17.437654	-14.179620	1.000000	
1001	0.000000	0.000000	0.000000	14.450080	18.205144	-13.939883	1.000000	
1002	0.000000	0.000000	0.000000	14.682783	18.918294	-13.683143	1.000000	
1003	0.000000	0.000000	0.000000	14.978667	19.397757	-13.473128	1.000000	
1004	0.000000	0.000000	0.000000	15.333041	19.589112	-13.327430	1.000000	
[LToes]
#Fr	Tx	Ty	Tz	Rx	Ry	Rz	SF
1000	0.000000	0.000000	0.000000	16.868859	0.000000	0.000000	1.000000	
1001	0.000000	0.000000	0.000000	17.203400	0.000000	0.000000	1.000000	
1002	0.000000	0.000000	0.000000	17.486015	0.000000	0.000000	1.000000	
1003	0.000000	0.000000	0.000000	17.604695	0.000000	0.000000	1.000000	
1004	0.000000	0.000000	0.000000	17.516725	0.000000	0.000000	1.000000	
